<svg width="244" height="216" viewBox="0 0 244 216" fill="none" xmlns="http://www.w3.org/2000/svg">
<path d="M0 44.9267C0 20.2977 19.9657 0.332031 44.5946 0.332031H183.495C208.124 0.332031 228.089 20.2977 228.089 44.9266V170.74C228.089 195.369 208.124 215.334 183.495 215.334H44.5946C19.9657 215.334 0 195.369 0 170.74V44.9267Z" fill="#0056D6"/>
<path d="M230.309 215.558L177.325 215.558C164.984 215.558 159.119 200.362 168.26 192.071L207.135 156.812C214.102 150.493 225.233 153.061 228.727 161.793L242.836 197.053C246.383 205.916 239.855 215.558 230.309 215.558Z" fill="#0056D6"/>
<path d="M171.753 169.83C161.317 169.83 153.438 161.311 153.438 150.876C153.438 140.441 161.317 131.922 171.753 131.922C177.006 131.922 180.91 134.406 183.466 138.027V135.826C183.466 134.265 184.743 133.058 186.234 133.058H189.571C191.132 133.058 192.339 134.265 192.339 135.826V165.925C192.339 167.487 191.132 168.694 189.571 168.694H186.234C184.743 168.694 183.466 167.487 183.466 165.925V163.725C180.91 167.274 177.006 169.83 171.753 169.83ZM172.888 160.885C178.78 160.885 183.466 156.555 183.466 150.876C183.466 145.197 178.78 140.795 172.888 140.795C166.996 140.795 162.311 145.197 162.311 150.876C162.311 156.555 166.996 160.885 172.888 160.885Z" fill="white"/>
<path d="M130.35 168.695C129.001 168.695 127.795 167.843 127.298 166.565L115.372 136.04C114.804 134.62 115.868 133.059 117.43 133.059H121.051C122.399 133.059 123.606 133.839 124.103 135.117L132.693 156.982L141.211 135.117C141.708 133.839 142.915 133.059 144.335 133.059H147.955C149.517 133.059 150.582 134.62 150.014 136.04L138.088 166.565C137.591 167.843 136.313 168.695 134.964 168.695H130.35Z" fill="white"/>
<path d="M103.49 147.826C102.425 143.212 98.6626 140.301 94.1903 140.301C89.2921 140.301 85.6717 143.354 84.5358 147.826H103.49ZM94.8292 131.925C104.91 132.279 112.221 140.727 112.008 151.446V152.582C112.008 154.073 110.802 155.067 109.169 155.067H84.8198C86.1686 158.9 89.576 161.456 94.9002 161.456C97.9527 161.456 100.295 160.32 101.999 158.971C102.851 158.332 103.987 158.332 104.768 159.042L107.181 161.03C108.388 162.024 108.459 163.869 107.394 165.076C104.342 168.2 100.153 169.832 94.9002 169.832C83.471 169.832 75.2363 161.314 75.2363 150.807C75.3073 140.301 84.3229 131.57 94.8292 131.925Z" fill="white"/>
<path d="M38.5244 168.696C36.9627 168.696 35.7559 167.489 35.7559 165.927V121.772C35.7559 120.282 36.9627 119.004 38.5244 119.004H41.8609C43.3516 119.004 44.6294 120.282 44.6294 121.772V137.745C46.8301 134.337 50.2375 131.924 55.2067 131.924C62.2346 131.924 69.1915 137.532 69.1915 146.973V165.927C69.1915 167.489 67.9137 168.696 66.352 168.696H63.0865C61.5247 168.696 60.2469 167.489 60.2469 165.927V148.677C60.2469 145.057 57.6204 140.797 52.7931 140.797C47.8949 140.797 44.6294 144.844 44.6294 151.446V165.927C44.6294 167.489 43.3516 168.696 41.8609 168.696H38.5244Z" fill="white"/>
<path d="M104.97 104.93C111.268 111.228 121.529 111.228 127.828 104.93C134.126 98.6308 134.126 88.3705 127.828 82.0717L123.418 77.6618C122.087 76.3314 119.926 76.3314 118.589 77.6691L115.472 80.7854C114.135 82.1231 114.127 84.2913 115.458 85.6216L119.706 89.8698C121.514 91.6779 121.815 94.6252 120.184 96.5949C118.317 98.8587 114.958 98.9836 112.929 96.9551L98.4349 82.3283C97.2296 81.1229 95.2892 81.1229 94.0838 82.3283L90.4604 85.9517C89.2624 87.1498 89.2624 89.0901 90.453 90.2955L104.955 104.93L104.97 104.93Z" fill="#C3FB11"/>
<path d="M123.122 47.1134C116.823 40.8146 106.563 40.8146 100.264 47.1134C93.9655 53.4122 93.9655 63.6725 100.264 69.9713L104.674 74.3812C106.004 75.7115 108.165 75.7115 109.503 74.3739L112.619 71.2575C113.957 69.9199 113.964 67.7517 112.634 66.4213L108.386 62.1731C106.578 60.3651 106.276 57.4178 107.908 55.4481C109.775 53.1843 113.134 53.0594 115.162 55.0879L129.657 69.7147C130.862 70.9201 132.803 70.9201 134.008 69.7147L137.631 66.0912C138.829 64.8932 138.829 62.9529 137.639 61.7475L123.137 47.1134L123.122 47.1134Z" fill="#9ECBFF"/>
<path d="M76.5938 72.4121C75.4471 73.5587 75.4471 75.4178 76.5938 76.5645L80.4243 80.395C81.5709 81.5416 83.43 81.5416 84.5767 80.395L88.4072 76.5645C89.5538 75.4178 89.5538 73.5587 88.4072 72.4121L84.5767 68.5816C83.43 67.4349 81.5709 67.4349 80.4243 68.5816L76.5938 72.4121Z" fill="#C3FB11"/>
<path d="M147.672 71.6504C146.525 70.5038 144.666 70.5038 143.519 71.6504L139.689 75.4809C138.542 76.6276 138.542 78.4867 139.689 79.6333L143.519 83.4638C144.666 84.6105 146.525 84.6105 147.672 83.4638L151.502 79.6333C152.649 78.4867 152.649 76.6276 151.502 75.4809L147.672 71.6504Z" fill="#9ECBFF"/>
</svg>
